<?xml version="1.0" encoding="utf-8"?>
<!-- Generator: Adobe Illustrator 22.0.1, SVG Export Plug-In . SVG Version: 6.00 Build 0)  -->
<svg version="1.1" id="Layer_1" focusable="false" xmlns="http://www.w3.org/2000/svg" xmlns:xlink="http://www.w3.org/1999/xlink"
	 x="0px" y="0px" viewBox="0 0 512 512" style="enable-background:new 0 0 512 512;" xml:space="preserve">
<path d="M311,241.5c0,31.7-25.8,57.5-57.5,57.5S196,273.2,196,241.5s25.8-57.5,57.5-57.5S311,209.8,311,241.5z M429.5,184
	c-31.7,0-57.5,25.8-57.5,57.5s25.8,57.5,57.5,57.5s57.5-25.8,57.5-57.5S461.2,184,429.5,184z M77.5,184C45.8,184,20,209.8,20,241.5
	S45.8,299,77.5,299s57.5-25.8,57.5-57.5S109.2,184,77.5,184z"/>
</svg>
